Coordinates
version=1
nRows=10
nColumns=33
inDegrees=yes

Units are S.I. units (second, meters, Newtons, ...)
Angles are in degrees.

endheader
time	ground_thorax_rot_x	ground_thorax_rot_y	ground_thorax_rot_z	ground_thorax_tx	ground_thorax_ty	ground_thorax_tz	clav_prot_r	clav_elev_r	scapula_abduction_r	scapula_elevation_r	scapula_upward_rot_r	scapula_winging_r	shoulder_elv_r	plane_of_elev_r	axial_rot_r	elbow_flexion_r	pro_sup_r	wrist_flex_r	wrist_dev_r	clav_prot_l	clav_elev_l	scapula_abduction_l	scapula_elevation_l	scapula_upward_rot_l	scapula_winging_l	shoulder_elv_l	plane_of_elev_l	axial_rot_l	elbow_flexion_l	pro_sup_l	wrist_flex_l	wrist_dev_l
      5.81000000	     24.40374800	     33.45851320	     50.48205612	     88.55795148	    780.75059181	    -41.59867382	     13.48925867	     36.34748865	     27.90960370	     45.00000000	    -45.00000000	  -1159.43636555	  -2449.00333751	     22.68034313	    179.99999979	    363.54683765	   -172.61181148	     13.29272375	     11.38070183	    -13.90745561	    -45.00000000	    -35.97407129	     45.00000000	    -45.00000000	  -3500.06872574	   1515.17515368	     25.71979755	     29.95897165	   1790.93349921	     49.02770762	     10.44751939	    -16.02877707
      5.82000000	     24.55511533	     33.40842955	     50.25125225	     88.66514592	    780.54752465	    -41.68588072	     13.35799143	     35.96850584	     27.76243989	     45.00000000	    -45.00000000	  -1159.31757842	  -2448.79660647	     22.82497254	    179.99999979	    363.39128281	   -172.58052763	     12.85623855	     11.58776126	    -13.96936781	    -45.00000000	    -35.78096075	     45.00000000	    -45.00000000	  -3500.36453304	   1515.40075504	     25.50532279	     29.85896222	   1790.92718921	     49.04080259	     10.22844280	    -16.01136424
      5.83000000	     24.52518854	     33.45469343	     50.15114001	     88.65018380	    780.32828664	    -41.77305444	     13.49159365	     36.35693025	     27.80890314	     45.00000000	    -45.00000000	  -1159.41104119	  -2448.94492172	     22.79681921	    179.99999979	    363.60145937	   -172.61784715	     13.29690177	     11.42561047	    -13.93553385	    -45.00000000	    -35.98352210	     45.00000000	    -45.00000000	  -3500.06519926	   1515.24097485	     25.74662466	     29.90895421	   1790.99019812	     49.05926799	     10.41809824	    -16.04779762
      5.84000000	     24.57473635	     33.46622382	     50.13291138	     88.51621611	    780.10354871	    -41.85840774	     13.31110178	     36.00576827	     27.98491730	     45.00000000	    -45.00000000	  -1159.35187544	  -2448.90168583	     22.53270269	    179.99999979	    363.45609368	   -172.54708807	     12.97059920	     11.56939558	    -13.92566487	    -45.00000000	    -35.77388084	     45.00000000	    -45.00000000	  -3500.28693675	   1515.45050627	     25.45541147	     29.73757742	   1790.96910233	     49.02471774	     10.24437961	    -16.08622941
      5.85000000	     24.55301960	     33.48343118	     49.98901316	     88.26738234	    779.85976622	    -41.94750779	     13.44834004	     36.32790538	     27.91349716	     45.00000000	    -45.00000000	  -1159.44230239	  -2449.00313566	     22.66719932	    179.99999979	    363.64008233	   -172.54038559	     13.28567661	     11.49212656	    -13.92934016	    -45.00000000	    -36.01116868	     45.00000000	    -45.00000000	  -3500.01144817	   1515.31661539	     25.67701502	     29.75390744	   1791.03367812	     48.97349825	     10.40276215	    -16.05658837
      5.86000000	     24.67571953	     33.47175498	     49.78690858	     87.91152718	    779.60106298	    -42.03983884	     13.34968886	     36.12001535	     27.87059831	     45.00000000	    -45.00000000	  -1159.34216741	  -2448.86614261	     22.62212458	    179.99999979	    363.58009216	   -172.48384473	     13.13546417	     11.54875682	    -13.90407860	    -45.00000000	    -35.84953105	     45.00000000	    -45.00000000	  -3500.18824325	   1515.43334234	     25.52593721	     29.57512446	   1791.02095656	     48.87702704	     10.35533263	    -16.12800496
      5.87000000	     24.71544902	     33.44596806	     49.61602752	     87.45773413	    779.33005792	    -42.13626706	     13.46062742	     36.40388212	     27.71985319	     45.00000000	    -45.00000000	  -1159.45370896	  -2448.86116214	     22.87149301	    179.99999979	    363.72870888	   -172.47496377	     13.37128553	     11.51460746	    -13.93344553	    -45.00000000	    -35.99626399	     45.00000000	    -45.00000000	  -3499.90703263	   1515.30634922	     25.74542754	     29.54043389	   1791.04663151	     48.78762271	     10.50506559	    -16.04628850
      5.88000000	     24.79548095	     33.42613620	     49.51152890	     86.90877807	    779.04627885	    -42.23885937	     13.28656691	     35.90520595	     27.95360779	     45.00000000	    -45.00000000	  -1159.30011167	  -2448.83520955	     22.41065596	    179.99999979	    363.50947603	   -172.37540373	     12.94935119	     11.65191809	    -13.79862629	    -45.00000000	    -35.77365312	     45.00000000	    -45.00000000	  -3500.25498626	   1515.58081376	     25.34660895	     29.27469750	   1791.04203457	     48.62934749	     10.26176936	    -16.15007915
      5.89000000	     24.69795845	     33.43871608	     49.44289747	     86.27232662	    778.75380178	    -42.34832679	     13.42942434	     36.45333437	     27.83421239	     45.00000000	    -45.00000000	  -1159.51488029	  -2449.03031871	     22.69541182	    179.99999979	    363.84723040	   -172.36173877	     13.43739991	     11.57080874	    -13.92715198	    -45.00000000	    -36.17824099	     45.00000000	    -45.00000000	  -3499.76460540	   1515.36832727	     25.65189652	     29.30009509	   1791.09053604	     48.51339496	     10.56525728	    -16.00266552
      5.90000000	     24.88600702	     33.35839514	     49.18266699	     85.54445570	    778.44957971	    -42.46787087	     13.29951637	     35.96600469	     27.81986047	     45.00000000	    -45.00000000	  -1159.26305390	  -2448.81633069	     22.51180550	    179.99999979	    363.67453467	   -172.21408702	     13.01248004	     11.65529618	    -13.75152231	    -45.00000000	    -35.86314954	     45.00000000	    -45.00000000	  -3500.11065449	   1515.62674037	     25.34464427	     28.97539258	   1791.01947708	     48.35004566	     10.38877400	    -16.14072320
